<?xml version="1.0" standalone="no"?>
<!DOCTYPE svg PUBLIC "-//W3C//DTD SVG 1.1//EN" "http://www.w3.org/Graphics/SVG/1.1/DTD/svg11.dtd" >
<svg xmlns="http://www.w3.org/2000/svg">
<metadata></metadata>
<defs>
<font id="pluto_sansthin" horiz-adv-x="1425" >
<font-face units-per-em="2048" ascent="1536" descent="-512" />
<missing-glyph horiz-adv-x="491" />
<glyph horiz-adv-x="0" />
<glyph horiz-adv-x="0" />
<glyph horiz-adv-x="682" />
<glyph unicode=" "  horiz-adv-x="491" />
<glyph unicode="&#x09;" horiz-adv-x="491" />
<glyph unicode="&#xa0;" horiz-adv-x="491" />
<glyph unicode="!" horiz-adv-x="546" d="M207 55q0 76 65 76q70 0 70 -76q0 -75 -70 -75q-65 0 -65 75zM252 391v1000h43v-1000h-43z" />
<glyph unicode="&#x22;" horiz-adv-x="837" d="M199 920v473h41v-473h-41zM598 920v473h41v-473h-41z" />
<glyph unicode="#" horiz-adv-x="1417" d="M92 340v43h221l162 645h-196v43h206l80 322h45v-7l-78 -315h527l80 322h45v-7l-78 -315h219v-43h-229l-162 -645h205v-43h-215l-84 -340h-45v6l82 334h-527l-84 -340h-45v6l82 334h-211zM360 383h527l162 645h-527z" />
<glyph unicode="$" horiz-adv-x="1275" d="M135 1042q0 68 30.5 131t88.5 114.5t153.5 84.5t215.5 37v168h41v-166q126 0 252 -33t208 -80l-18 -41q-70 44 -198 78.5t-244 34.5v-645l106 -25q92 -21 157.5 -47t117.5 -64.5t78 -92.5t26 -125q0 -171 -132.5 -274.5t-352.5 -114.5v-244h-41v242h-9 q-132 0 -255.5 37.5t-200.5 84.5l14 39q77 -45 197.5 -83t244.5 -38h9v674l-181 41q-143 32 -225 109t-82 198zM176 1042q0 -104 70.5 -171t202.5 -97l174 -41v635q-110 -4 -197.5 -33.5t-141 -75.5t-81 -101.5t-27.5 -115.5zM664 20q197 11 320.5 105.5t123.5 245.5 q0 114 -85.5 184t-262.5 109l-96 20v-664z" />
<glyph unicode="%" horiz-adv-x="1673" d="M96 1071q0 147 95.5 243.5t244.5 96.5q150 0 245 -96.5t95 -243.5q0 -146 -95 -241t-245 -95q-149 0 -244.5 95.5t-95.5 240.5zM137 1071q0 -128 84 -212.5t215 -84.5q132 0 216.5 84t84.5 213q0 130 -84.5 215.5t-216.5 85.5q-131 0 -215 -85.5t-84 -215.5zM420 0v6 l754 1387h45v-7l-754 -1386h-45zM897 315q0 147 95.5 243.5t244.5 96.5q150 0 245 -96.5t95 -243.5q0 -146 -95 -240.5t-245 -94.5q-149 0 -244.5 95t-95.5 240zM938 315q0 -128 84 -212.5t215 -84.5q133 0 217 84t84 213q0 130 -84.5 215.5t-216.5 85.5q-131 0 -215 -85.5 t-84 -215.5z" />
<glyph unicode="&#x26;" horiz-adv-x="1423" d="M154 334q0 62 24.5 117.5t60.5 94.5t89 75t96.5 57t97.5 43l-16 16q-105 101 -141 145q-91 111 -91 214q0 147 101.5 232t273.5 85q159 0 268 -89.5t109 -221.5q0 -226 -248 -326l-180 -74l459 -442q160 202 209 502l45 -8q-63 -323 -224 -525l232 -221v-8h-51l-205 197 q-189 -215 -455 -215q-210 0 -332 94t-122 258zM195 332q0 -141 110.5 -225t302.5 -84q243 0 422 204l-473 459q-58 -23 -99 -42t-94.5 -52.5t-87 -68t-57.5 -84.5t-24 -107zM315 1098q0 -44 19.5 -90t57 -91.5t67 -76t71.5 -70.5q10 -10 15 -14l20 -21l195 76 q225 87 225 291q0 113 -99 191.5t-237 78.5q-160 0 -247 -74.5t-87 -199.5z" />
<glyph unicode="'" horiz-adv-x="438" d="M199 920v473h41v-473h-41z" />
<glyph unicode="(" horiz-adv-x="573" d="M152 535q0 143 22 279.5t53.5 235.5t73 187t74 139t63.5 88l35 -26q-31 -40 -62.5 -89t-72 -135.5t-71 -181.5t-51.5 -226.5t-21 -270.5q0 -137 21 -268.5t51.5 -227t71 -182t72 -137t62.5 -89.5l-35 -26q-31 37 -63.5 88t-74 139.5t-73 187t-53.5 235.5t-22 280z" />
<glyph unicode=")" horiz-adv-x="573" d="M100 -369q31 39 62.5 89t72.5 137t71 182.5t51.5 227t21.5 268.5q0 139 -21.5 270.5t-51.5 226.5t-71 181.5t-72.5 135.5t-62.5 89l35 26q40 -49 82.5 -122t92 -189t81 -278.5t31.5 -339.5q0 -143 -22 -280t-54 -235.5t-73.5 -187t-74 -139.5t-63.5 -88z" />
<glyph unicode="*" horiz-adv-x="987" d="M139 1106l13 41l319 -84v330h43v-330l322 84l12 -41l-326 -84l172 -291l-37 -20l-168 284l-161 -284l-37 20l166 293z" />
<glyph unicode="+" horiz-adv-x="1171" d="M133 598v41h432v432h41v-432h432v-41h-432v-432h-41v432h-432z" />
<glyph unicode="," horiz-adv-x="526" d="M182 -330l103 303q-45 0 -70 20t-25 50q0 80 72 80q35 0 54.5 -23.5t19.5 -56.5q0 -66 -46 -201.5t-75 -185.5z" />
<glyph unicode="-" horiz-adv-x="1110" d="M195 598v43h720v-43h-720z" />
<glyph unicode="." horiz-adv-x="524" d="M195 55q0 76 65 76q70 0 70 -76q0 -75 -70 -75q-65 0 -65 75z" />
<glyph unicode="/" horiz-adv-x="970" d="M86 0v6l754 1387h45v-7l-754 -1386h-45z" />
<glyph unicode="0" horiz-adv-x="1466" d="M160 694q0 126 20 233t64 197.5t109.5 154t161.5 99t216 35.5q121 0 218 -35.5t163 -99t110.5 -154t64.5 -197.5t20 -233q0 -125 -20 -231t-64.5 -196t-110.5 -153t-163 -98.5t-218 -35.5q-149 0 -260.5 53.5t-178.5 151t-99.5 225t-32.5 284.5zM201 694 q0 -117 18 -216.5t58.5 -185t101.5 -145t150.5 -93.5t201.5 -34q141 0 246 51t167 144t92 212.5t30 266.5q0 149 -30 269t-92 213.5t-167 144.5t-246 51q-112 0 -201.5 -34t-150.5 -93.5t-101.5 -145.5t-58.5 -186.5t-18 -218.5z" />
<glyph unicode="1" horiz-adv-x="937" d="M63 1141l588 252h41v-1393h-41v1346l-573 -242z" />
<glyph unicode="2" horiz-adv-x="1275" d="M139 956q5 205 134.5 331t361.5 126q116 0 207 -33.5t147 -93t84.5 -136.5t28.5 -169q0 -144 -72.5 -263t-228.5 -237l-582 -440h932v-41h-999v41l622 473q148 111 217.5 221.5t69.5 245.5q0 83 -26 153t-77 123.5t-133.5 84t-189.5 30.5q-214 0 -333 -115.5t-122 -300.5 h-41z" />
<glyph unicode="3" horiz-adv-x="1323" d="M160 82l18 39q208 -101 449 -101q213 0 357 96t144 259q0 149 -109 238t-308 89h-396v41h396q171 0 269.5 94.5t98.5 221.5q0 147 -127 230t-325 83q-237 0 -437 -110l-20 36q215 115 457 115q144 0 255 -40.5t174.5 -121.5t63.5 -192q0 -124 -82.5 -220.5t-216.5 -111.5 q162 -22 255 -113t93 -239q0 -122 -72 -212.5t-193.5 -136.5t-276.5 -46q-230 0 -467 102z" />
<glyph unicode="4" horiz-adv-x="1447" d="M70 336v41l897 1016h51v-1016h346v-41h-346v-336h-41v336h-907zM123 377h854v971z" />
<glyph unicode="5" horiz-adv-x="1310" d="M127 86l20 39q204 -105 461 -105q79 0 152 13t141.5 44t118.5 77.5t80 117t30 158.5q0 75 -26.5 134t-72.5 98t-113 64t-142 35.5t-164 10.5h-395l-4 6l51 615h862v-41h-825l-45 -539h356q121 0 220 -21t176.5 -65.5t120 -119t42.5 -175.5q0 -95 -32.5 -172.5 t-86.5 -128.5t-127.5 -86t-152.5 -50t-164 -15q-93 0 -172.5 10.5t-143.5 31t-92 32t-73 32.5z" />
<glyph unicode="6" d="M156 698q0 212 71.5 372.5t211.5 251.5t331 91q150 0 270.5 -44.5t190.5 -102.5l-31 -35q-65 57 -177 99t-253 42q-176 0 -306.5 -86t-198.5 -238t-68 -350q0 -61 6 -116q22 39 50.5 77.5t81 90t111.5 89.5t145 64.5t179 26.5q235 0 374.5 -123.5t139.5 -343.5 q0 -211 -147.5 -347t-370.5 -136q-190 0 -328.5 89.5t-210 251t-71.5 377.5zM211 522q42 -233 187.5 -367.5t367.5 -134.5q203 0 340 126.5t137 316.5q0 202 -131.5 314t-341.5 112q-98 0 -188 -32.5t-149 -76t-110.5 -101t-73.5 -92t-38 -65.5z" />
<glyph unicode="7" horiz-adv-x="1073" d="M61 1352v41h967v-41l-666 -1352h-49v6l666 1346h-918z" />
<glyph unicode="8" horiz-adv-x="1392" d="M154 375q0 147 105.5 238.5t283.5 113.5q-150 15 -245 111.5t-95 220.5q0 111 63.5 192t174.5 121.5t255 40.5q221 0 357.5 -94t136.5 -260q0 -124 -95 -220.5t-245 -111.5q178 -22 283.5 -113.5t105.5 -238.5q0 -122 -72 -212.5t-194 -136.5t-277 -46t-276.5 46 t-193.5 136.5t-72 212.5zM195 375q0 -108 68 -190t181 -123.5t252 -41.5q214 0 358 96.5t144 258.5q0 151 -122.5 237t-375.5 86q-254 0 -379.5 -86t-125.5 -237zM244 1059q0 -60 25.5 -114t77.5 -99t142.5 -71.5t210.5 -26.5q117 0 206 26.5t140.5 71.5t77 99t25.5 114 q0 151 -125.5 232t-327.5 81t-327 -81t-125 -232z" />
<glyph unicode="9" d="M141 930q0 211 147.5 347t370.5 136q190 0 328.5 -89.5t210.5 -251.5t72 -378q0 -211 -72 -372t-212 -251.5t-331 -90.5q-150 0 -270 44.5t-190 102.5l30 35q65 -57 177 -99.5t253 -42.5q176 0 307 86t199 238t68 350q0 60 -6 115q-23 -39 -51.5 -77.5t-81.5 -89.5 t-112 -88.5t-144.5 -64t-178.5 -26.5q-235 0 -374.5 123.5t-139.5 343.5zM182 930q0 -202 131.5 -314t341.5 -112q98 0 188 32.5t148.5 75.5t109.5 100.5t73 92t38 65.5q-40 231 -185.5 366.5t-367.5 135.5q-203 0 -340 -126t-137 -316z" />
<glyph unicode=":" horiz-adv-x="524" d="M195 55q0 76 65 76q70 0 70 -76q0 -75 -70 -75q-65 0 -65 75zM195 1024q0 76 65 76q70 0 70 -76t-70 -76q-65 0 -65 76z" />
<glyph unicode=";" horiz-adv-x="550" d="M197 -330l102 303q-45 0 -69.5 20t-24.5 50q0 80 71 80q35 0 54.5 -23.5t19.5 -56.5q0 -66 -46 -201.5t-75 -185.5zM207 1024q0 76 65 76q70 0 70 -76t-70 -76q-65 0 -65 76z" />
<glyph unicode="&#x3c;" horiz-adv-x="1175" d="M104 600v41l897 446h7v-45l-861 -421l861 -422v-45h-7z" />
<glyph unicode="=" horiz-adv-x="1298" d="M197 307v41h905v-41h-905zM197 891v41h905v-41h-905z" />
<glyph unicode="&#x3e;" horiz-adv-x="1175" d="M168 154v45l860 422l-860 421v45h6l897 -446v-41l-897 -446h-6z" />
<glyph unicode="?" horiz-adv-x="960" d="M94 1206q21 41 50.5 75.5t73 65.5t106 48.5t137.5 17.5q159 0 262.5 -95t103.5 -247q0 -51 -11 -96t-26.5 -76.5t-42.5 -65.5t-47 -54t-53 -51q-8 -7 -12 -11l-150 -142q-40 -37 -51.5 -60t-11.5 -66q0 -27 8 -58h-43q-6 27 -6 58q0 53 16 83t62 72l151 146 q82 80 111 120q65 91 65 201q0 136 -93 218.5t-232 82.5q-235 0 -328 -190zM346 55q0 76 66 76q69 0 69 -76q0 -75 -69 -75q-66 0 -66 75z" />
<glyph unicode="@" horiz-adv-x="2080" d="M133 539q0 197 71.5 371t194.5 297.5t295.5 194.5t368.5 71q197 0 368 -63t290 -171.5t187 -258t68 -318.5q0 -153 -37 -278.5t-97 -202t-132.5 -117.5t-148.5 -41q-85 0 -123 37t-43 110q-62 -63 -155.5 -105t-197.5 -42q-218 0 -349.5 138t-131.5 357q0 222 132 363 t349 141q105 0 197.5 -40t153.5 -103v127h41v-807q0 -68 28.5 -102t98.5 -34q53 0 105 23.5t101 72.5t86 118.5t59.5 169t22.5 215.5q0 161 -64.5 303t-178 245t-277 162.5t-352.5 59.5q-151 0 -288 -43t-245.5 -123.5t-189 -189.5t-123.5 -247t-43 -290q0 -151 43 -288.5 t123.5 -247t189 -191t245.5 -125t288 -43.5q216 0 407 90l19 -37q-196 -94 -426 -94q-196 0 -368.5 72t-295.5 196.5t-194.5 298t-71.5 369.5zM602 518q0 -201 121 -328t321 -127q107 0 199 45.5t150 110.5v602q-57 67 -149 113.5t-200 46.5q-200 0 -321 -129.5t-121 -333.5 z" />
<glyph unicode="A" d="M76 0l626 1393h41l586 -1393h-41l-160 377h-841l-170 -377h-41zM305 418h807l-391 928z" />
<glyph unicode="B" horiz-adv-x="1378" d="M246 0v1393h434q211 0 329.5 -88t118.5 -265q0 -123 -73 -203t-201 -114q183 -23 284 -114t101 -253q0 -166 -118 -261t-347 -95h-528zM287 41h489q203 0 312.5 83.5t109.5 231.5q0 170 -127 255t-352 85h-432v-655zM287 737h375q191 0 308 78.5t117 224.5 q0 158 -107.5 235t-299.5 77h-393v-615z" />
<glyph unicode="C" horiz-adv-x="1552" d="M147 696q0 151 54.5 284t149.5 228t227.5 150t283.5 55q170 0 310.5 -62.5t238.5 -179.5l-27 -30q-92 109 -227.5 170t-294.5 61q-143 0 -268 -51.5t-214 -141t-140.5 -215t-51.5 -268.5t51.5 -268.5t140.5 -215t214 -141t268 -51.5q159 0 294.5 61.5t227.5 170.5l27 -31 q-98 -116 -238.5 -178.5t-310.5 -62.5q-201 0 -365 93.5t-257 257.5t-93 365z" />
<glyph unicode="D" horiz-adv-x="1605" d="M246 0v1393h489q155 -1 286 -47t227.5 -132.5t151 -220t54.5 -299.5q0 -165 -54.5 -297.5t-151 -218.5t-227.5 -132t-286 -46h-489zM287 41h448q147 0 271 42.5t214.5 123.5t141.5 206t51 281q0 158 -51 283.5t-142 206.5t-214 124t-271 44h-448v-1311z" />
<glyph unicode="E" horiz-adv-x="1415" d="M246 0v1393h1028v-41h-987v-598h837v-41h-837v-672h987v-41h-1028z" />
<glyph unicode="F" horiz-adv-x="1339" d="M246 0v1393h987v-41h-946v-674h835v-41h-835v-637h-41z" />
<glyph unicode="G" horiz-adv-x="1624" d="M147 694q0 166 58 303t158.5 227t235.5 139.5t290 49.5q161 0 283 -50.5t233 -150.5l-29 -32q-104 95 -220 143.5t-267 48.5q-195 0 -353 -79.5t-253 -235.5t-95 -363q0 -154 55 -282.5t150.5 -213.5t223 -131.5t272.5 -46.5q147 0 290.5 44t237.5 112v463h-588v41h629 v-528q-100 -74 -256.5 -123t-312.5 -49q-155 0 -290 49t-235.5 139t-158.5 226t-58 300z" />
<glyph unicode="H" horiz-adv-x="1708" d="M246 0v1393h41v-674h1134v674h41v-1393h-41v678h-1134v-678h-41z" />
<glyph unicode="I" horiz-adv-x="532" d="M246 0v1393h41v-1393h-41z" />
<glyph unicode="J" horiz-adv-x="1349" d="M84 496l39 6q15 -230 134.5 -358t342.5 -128q227 0 354 135.5t127 362.5v879h41v-879q0 -240 -140.5 -389.5t-381.5 -149.5q-237 0 -369 139.5t-147 381.5z" />
<glyph unicode="K" horiz-adv-x="1349" d="M246 0v1393h41v-691h221l688 691h47v-7l-698 -706l762 -676v-4h-62l-741 662h-217v-662h-41z" />
<glyph unicode="L" horiz-adv-x="1187" d="M246 0v1393h41v-1352h852v-41h-893z" />
<glyph unicode="M" horiz-adv-x="1925" d="M246 0v1393h41l676 -826l675 826h41v-1393h-41v1323l-665 -809h-21l-665 809v-1323h-41z" />
<glyph unicode="N" horiz-adv-x="1699" d="M246 0v1393h41l1126 -1332v1332h41v-1393h-41l-1126 1325v-1325h-41z" />
<glyph unicode="O" horiz-adv-x="1728" d="M147 694q0 152 54.5 285.5t149.5 228.5t227.5 150t283.5 55q152 0 285.5 -55t228.5 -150t150 -228.5t55 -285.5q0 -201 -93 -364.5t-258 -256.5t-368 -93q-201 0 -365 93t-257 256.5t-93 364.5zM188 694q0 -143 51 -268t140.5 -214.5t214.5 -140.5t268 -51 q193 0 348 87.5t242.5 241.5t87.5 345q0 193 -87.5 348t-242.5 242.5t-348 87.5q-191 0 -345 -87.5t-241.5 -242.5t-87.5 -348z" />
<glyph unicode="P" horiz-adv-x="1382" d="M246 0v1393h553q97 0 181 -29t149.5 -85.5t103 -149t37.5 -211.5q0 -107 -38 -196t-102.5 -148t-149.5 -91t-181 -32h-512v-451h-41zM287 492h510q184 0 308 115t124 311q0 109 -34 193.5t-94 136t-137 78t-167 26.5h-510v-860z" />
<glyph unicode="Q" horiz-adv-x="1728" d="M147 694q0 152 54.5 285.5t149.5 228.5t227.5 150t283.5 55q152 0 285.5 -55t228.5 -150t150 -228.5t55 -285.5q0 -187 -81.5 -342.5t-226 -252t-327.5 -115.5q25 -18 73.5 -63.5t93.5 -82.5t105 -76t134 -61.5t155 -22.5q135 0 244 37l12 -45q-115 -39 -256 -39 q-83 0 -164 24.5t-141 62t-117 81.5t-96 82.5t-73.5 66.5t-53.5 32q-201 0 -365 93t-257 256.5t-93 364.5zM188 694q0 -143 51 -268t140.5 -214.5t214.5 -140.5t268 -51q193 0 348 87.5t242.5 241.5t87.5 345q0 193 -87.5 348t-242.5 242.5t-348 87.5q-191 0 -345 -87.5 t-241.5 -242.5t-87.5 -348z" />
<glyph unicode="R" horiz-adv-x="1458" d="M246 0v1393h590q90 0 169 -26t142 -77t100 -135t37 -192q0 -133 -62 -231t-162.5 -145.5t-223.5 -47.5h-54l617 -535v-4h-68l-612 539h-432v-539h-41zM287 580h549q83 0 156 25t129.5 72t89 121t32.5 165q0 98 -33.5 174t-90.5 122t-129 69.5t-154 23.5h-549v-772z" />
<glyph unicode="S" horiz-adv-x="1294" d="M143 1051q0 72 31.5 135t93 114t164 81t232.5 30q126 0 252 -33t208 -80l-16 -38q-69 43 -198 76.5t-246 33.5q-97 0 -177.5 -17.5t-136 -47.5t-93.5 -71t-55.5 -87t-17.5 -96q0 -105 74 -176t217 -103l303 -70q189 -43 284 -116t95 -209q0 -120 -70 -210.5t-193 -138.5 t-280 -48q-132 0 -255.5 37.5t-200.5 84.5l14 39q77 -45 197.5 -83t244.5 -38q217 0 359.5 98.5t142.5 258.5q0 113 -85 180.5t-263 106.5l-299 67q-155 35 -240.5 116t-85.5 204z" />
<glyph unicode="T" horiz-adv-x="1269" d="M41 1352v41h1188v-41h-553v-1352h-41v1352h-594z" />
<glyph unicode="U" horiz-adv-x="1597" d="M227 549v844h41v-844q0 -119 31.5 -215t94.5 -168t165.5 -111t237.5 -39q109 0 197.5 28t150 76.5t103.5 116.5t61.5 146.5t19.5 167.5v842h41v-844q0 -117 -35.5 -219.5t-104.5 -182.5t-180.5 -126t-252.5 -46q-280 0 -425 156.5t-145 417.5z" />
<glyph unicode="V" d="M96 1393h41l565 -1346l607 1346h41l-627 -1393h-41z" />
<glyph unicode="W" horiz-adv-x="2209" d="M96 1393h41l565 -1346l385 854l-206 492h41l565 -1346l606 1346h41l-627 -1393h-41l-360 854l-383 -854h-41z" />
<glyph unicode="X" horiz-adv-x="1378" d="M78 0v6l581 690l-581 690v7h47l565 -664l565 664h48v-7l-584 -690l584 -690v-6h-48l-565 664l-565 -664h-47z" />
<glyph unicode="Y" horiz-adv-x="1413" d="M80 1386v7h45l582 -742l581 742h45v-7l-606 -772v-614h-41v612z" />
<glyph unicode="Z" horiz-adv-x="1204" d="M109 0v41l935 1311h-935v41h987v-41l-936 -1311h936v-41h-987z" />
<glyph unicode="[" horiz-adv-x="686" d="M227 -385v1839h355v-41h-314v-1755h314v-43h-355z" />
<glyph unicode="\" horiz-adv-x="970" d="M86 1386v7h45l754 -1387v-6h-45z" />
<glyph unicode="]" horiz-adv-x="686" d="M104 -342h314v1755h-314v41h355v-1839h-355v43z" />
<glyph unicode="^" horiz-adv-x="1095" d="M158 860v6l364 527h41l375 -527v-6h-45l-350 496l-340 -496h-45z" />
<glyph unicode="_" horiz-adv-x="1413" d="M195 -100h1024v-43h-1024v43z" />
<glyph unicode="`" horiz-adv-x="1228" d="M518 1518h51l170 -261h-51z" />
<glyph unicode="a" horiz-adv-x="1179" d="M125 309q0 80 27.5 144t76.5 107.5t118 72.5t149 42t174 13q141 0 256 -35v64q0 161 -88 246.5t-256 85.5q-185 0 -334 -76l-12 41q69 35 165.5 55.5t182.5 20.5q183 0 283 -96.5t100 -276.5v-717h-41v139q-167 -159 -406 -159q-181 0 -288 88.5t-107 240.5zM166 309 q0 -133 95.5 -211t258.5 -78q134 0 230.5 49t175.5 124v421q-105 33 -256 33q-110 0 -199 -18.5t-158.5 -57.5t-108 -105.5t-38.5 -156.5z" />
<glyph unicode="b" horiz-adv-x="1341" d="M223 0v1454h41v-532q72 72 174.5 120t218.5 48q242 0 389.5 -154t147.5 -399q0 -246 -147.5 -401.5t-389.5 -155.5q-116 0 -218.5 47t-174.5 118v-145h-41zM264 199q62 -74 167 -126.5t226 -52.5q222 0 359 144.5t137 372.5q0 226 -136.5 369t-359.5 143 q-119 0 -224 -54.5t-169 -128.5v-667z" />
<glyph unicode="c" horiz-adv-x="1245" d="M147 537q0 243 158.5 403t405.5 160q234 0 393 -146l-25 -32q-147 137 -368 137q-229 0 -376 -149t-147 -373q0 -225 147.5 -375t375.5 -150q220 0 368 138l25 -33q-159 -146 -393 -146q-247 0 -405.5 161.5t-158.5 404.5z" />
<glyph unicode="d" horiz-adv-x="1343" d="M150 537q0 245 147 399t389 154q116 0 218.5 -48t174.5 -120v532h41v-1454h-41v145q-72 -71 -174.5 -118t-218.5 -47q-242 0 -389 155.5t-147 401.5zM190 537q0 -228 137 -372.5t359 -144.5q123 0 227 52.5t166 126.5v667q-63 75 -168 129t-225 54q-223 0 -359.5 -143 t-136.5 -369z" />
<glyph unicode="e" horiz-adv-x="1318" d="M150 532q0 115 38.5 218t108 181t174.5 123.5t231 45.5q118 0 209.5 -35.5t146.5 -98t83 -142t28 -171.5q0 -82 -16 -141h-965q2 -105 34 -193.5t94.5 -159t165.5 -110t237 -39.5q219 0 403 144l27 -37q-184 -146 -430 -146q-146 0 -258 44.5t-178.5 123t-99.5 177.5 t-33 216zM188 553h932q8 62 8 100q0 82 -25 153.5t-75 129t-134 90.5t-192 33q-153 0 -270.5 -70t-179 -184t-64.5 -252z" />
<glyph unicode="f" horiz-adv-x="942" d="M109 956v41h243v127q0 160 76.5 255.5t235.5 95.5q95 0 162 -40.5t106 -95.5l-29 -26q-93 121 -239 121q-73 0 -126.5 -23.5t-84.5 -66t-45.5 -97t-14.5 -123.5v-127h457v-41h-457v-956h-41v956h-243z" />
<glyph unicode="g" horiz-adv-x="1343" d="M152 573q0 106 38.5 200.5t107 164.5t170 111t220.5 41q115 0 217 -48t174 -120v149h41v-1001q0 -111 -36 -202t-97 -150t-142 -91.5t-171 -32.5q-37 0 -73 4t-63.5 9t-58.5 16t-49 17.5t-44.5 20.5t-35.5 19t-32 19.5t-25 15.5l16 43q34 -23 60.5 -38.5t75 -38 t107 -34.5t122.5 -12q169 0 287 117t118 316v157q-72 -70 -174 -117t-217 -47q-119 0 -220.5 40.5t-170 110t-107 163t-38.5 198.5zM193 573q0 -96 35.5 -182t98.5 -150t157 -101.5t204 -37.5q118 0 222.5 52t168.5 125v589q-65 75 -168.5 128t-222.5 53q-220 0 -357.5 -138 t-137.5 -338z" />
<glyph unicode="h" horiz-adv-x="1355" d="M223 0v1454h41v-629q59 126 174.5 195.5t270.5 69.5q211 0 324.5 -131.5t113.5 -342.5v-616h-41v616q0 191 -101.5 312t-295.5 121q-171 0 -290.5 -91.5t-154.5 -236.5v-721h-41z" />
<glyph unicode="i" horiz-adv-x="487" d="M201 1378q0 54 45 54q41 0 41 -54q0 -53 -41 -53q-45 0 -45 53zM223 0v1071h41v-1071h-41z" />
<glyph unicode="j" horiz-adv-x="487" d="M-25 -369q79 41 130.5 87t84.5 119.5t33 170.5v1063h41v-1065q0 -290 -272 -409zM203 1378q0 54 43 54q41 0 41 -54q0 -53 -41 -53q-43 0 -43 53z" />
<glyph unicode="k" horiz-adv-x="1091" d="M223 0v1454h41v-868l660 485h55v-6l-672 -494l707 -565v-6h-60l-690 559v-559h-41z" />
<glyph unicode="l" horiz-adv-x="616" d="M233 190v1264h41v-1261q0 -90 42 -131.5t112 -41.5t145 52l21 -35q-71 -57 -166 -57q-89 0 -142 52t-53 158z" />
<glyph unicode="m" horiz-adv-x="2154" d="M223 0v1071h41v-262q58 130 166 205.5t260 75.5q315 0 400 -304q53 136 165.5 220t274.5 84q106 0 186.5 -36t130 -100.5t74.5 -149.5t25 -188v-616h-41v616q0 194 -93.5 313.5t-285.5 119.5q-166 0 -275.5 -100t-144.5 -251v-698h-41v616q0 95 -21.5 172t-66 136.5 t-118 92t-171.5 32.5q-166 0 -277 -99t-147 -250v-700h-41z" />
<glyph unicode="n" horiz-adv-x="1355" d="M223 0v1071h41v-246q59 126 174.5 195.5t270.5 69.5q211 0 324.5 -131.5t113.5 -342.5v-616h-41v616q0 191 -101.5 312t-295.5 121q-171 0 -290.5 -91.5t-154.5 -236.5v-721h-41z" />
<glyph unicode="o" d="M147 532q0 121 42 226t115.5 180.5t179 118.5t227.5 43q250 0 408.5 -161t158.5 -407q0 -243 -158.5 -402t-408.5 -159q-163 0 -292.5 73t-200.5 200.5t-71 287.5zM188 532q0 -224 147 -372t376 -148q231 0 378.5 147.5t147.5 372.5q0 228 -147.5 377.5t-378.5 149.5 q-229 0 -376 -150t-147 -377z" />
<glyph unicode="p" horiz-adv-x="1341" d="M223 -385v1456h41v-149q72 72 174 120t217 48q242 0 389.5 -155.5t147.5 -402.5q0 -244 -147.5 -398t-389.5 -154q-115 0 -217 46.5t-174 116.5v-528h-41zM264 197q62 -73 166.5 -125t224.5 -52q224 0 360 143t136 369q0 228 -136 372.5t-360 144.5q-121 0 -224.5 -53 t-166.5 -128v-671z" />
<glyph unicode="q" horiz-adv-x="1341" d="M150 532q0 247 147 402.5t389 155.5q115 0 217 -48t174 -120v149h41v-1456h-41v528q-72 -70 -174 -116.5t-217 -46.5q-242 0 -389 154t-147 398zM190 532q0 -226 136 -369t360 -143q118 0 222.5 52t168.5 125v671q-65 75 -167.5 128t-223.5 53q-224 0 -360 -144.5 t-136 -372.5z" />
<glyph unicode="r" horiz-adv-x="911" d="M223 0v1071h41v-254q117 273 359 273q73 0 123.5 -22.5t101.5 -66.5l-27 -34q-89 82 -198 82q-128 0 -218.5 -90t-140.5 -234v-725h-41z" />
<glyph unicode="s" horiz-adv-x="1095" d="M162 72l14 43q171 -95 373 -95q169 0 270 76.5t101 186.5q0 89 -66 138.5t-205 80.5l-186 43q-161 34 -231 86.5t-70 159.5q0 138 103 218.5t292 80.5q93 0 196.5 -24.5t164.5 -55.5l-13 -41q-65 32 -160.5 56t-187.5 24q-171 0 -262.5 -69t-91.5 -189q0 -88 61 -131.5 t213 -77.5l180 -43q154 -34 229 -92.5t75 -161.5q0 -132 -112 -218.5t-300 -86.5q-212 0 -387 92z" />
<glyph unicode="t" horiz-adv-x="952" d="M90 1030v41h229v272h41v-272h480v-41h-482v-756q0 -122 60.5 -188t175.5 -66q68 0 147 25.5t133 65.5l23 -37q-142 -94 -305 -94q-131 0 -203 76t-72 216v758h-227z" />
<glyph unicode="u" horiz-adv-x="1355" d="M209 455v616h41v-616q0 -191 101.5 -311.5t295.5 -120.5q171 0 290.5 91t154.5 236v721h41v-1071h-41v246q-59 -126 -174.5 -195t-270.5 -69q-211 0 -324.5 131t-113.5 342z" />
<glyph unicode="v" horiz-adv-x="1220" d="M98 1071h47l465 -1032l465 1032h47l-487 -1071h-49z" />
<glyph unicode="w" horiz-adv-x="2041" d="M102 1071h48l423 -1032l424 1032h47l424 -1032l424 1032h47l-446 -1071h-49l-424 1028l-422 -1028h-49z" />
<glyph unicode="x" horiz-adv-x="1155" d="M96 0v6l451 526l-451 533v6h51l431 -504l432 504h49v-6l-453 -533l453 -526v-6h-53l-428 500l-426 -500h-56z" />
<glyph unicode="y" horiz-adv-x="1249" d="M31 -330l16 41q52 -37 102 -56.5t125 -19.5q59 0 104 17t80 53t60.5 79.5t54.5 109.5l43 104l-534 1073h45l512 -1024l453 1024h45l-523 -1188q-31 -70 -59.5 -117.5t-68.5 -89t-92.5 -62t-119.5 -20.5q-126 0 -243 76z" />
<glyph unicode="z" horiz-adv-x="1081" d="M121 0v41l786 989h-786v41h840v-41l-787 -989h787v-41h-840z" />
<glyph unicode="{" horiz-adv-x="587" d="M135 510v41q189 0 189 158q0 79 -36 182t-72 199t-36 157q0 38 11.5 73t36 66t69.5 49.5t104 18.5h58v-41h-56q-82 0 -132 -46.5t-50 -119.5q0 -57 36 -153.5t72 -202t36 -182.5q0 -79 -32 -120.5t-110 -58.5q79 -17 110.5 -59t31.5 -127q0 -75 -36 -179.5t-72 -201 t-36 -153.5q0 -73 50 -119.5t132 -46.5h56v-41h-58q-59 0 -104 18.5t-69.5 49.5t-36 66t-11.5 73q0 61 36 157t72 199t36 182q0 162 -189 162z" />
<glyph unicode="|" horiz-adv-x="495" d="M227 -385v1839h41v-1839h-41z" />
<glyph unicode="}" horiz-adv-x="587" d="M129 -356h55q82 0 132.5 46.5t50.5 119.5q0 57 -36 153.5t-72 201t-36 179.5q0 85 31.5 127t110.5 59q-78 17 -110 58.5t-32 120.5q0 77 36 182.5t72 202t36 153.5q0 73 -50.5 119.5t-132.5 46.5h-55v41h57q59 0 104 -18.5t69.5 -49.5t36.5 -66t12 -73q0 -61 -36 -157 t-72 -199t-36 -182q0 -158 189 -158v-41q-189 0 -189 -162q0 -79 36 -182t72 -199t36 -157q0 -38 -12 -73t-36.5 -66t-69.5 -49.5t-104 -18.5h-57v41z" />
<glyph unicode="~" horiz-adv-x="1077" d="M195 559q6 76 51.5 129t118.5 53q37 0 76 -20t72 -49t65.5 -58t67 -49t65.5 -20q115 0 135 149l37 -8q-11 -82 -55.5 -132t-116.5 -50q-38 0 -76 20t-69.5 49t-62.5 58t-67 49t-71 20q-49 0 -88.5 -38t-45.5 -111z" />
<glyph unicode="&#xa1;" horiz-adv-x="509" d="M186 1024q0 76 70 76q66 0 66 -76t-66 -76q-70 0 -70 76zM233 -311v999h43v-999h-43z" />
<glyph unicode="&#xa2;" horiz-adv-x="1277" d="M147 537q0 243 158.5 403t405.5 160q54 0 131 -15l57 209l39 -10l-57 -207q128 -37 223 -123l-25 -32q-88 81 -211 116l-280 -1013q63 -13 123 -13q220 0 368 138l25 -33q-159 -146 -393 -146q-56 0 -133 15l-72 -258l-39 10l72 258q-179 51 -285.5 198t-106.5 343z M188 537q0 -181 98.5 -318t262.5 -184l280 1012q-55 12 -118 12q-229 0 -376 -149t-147 -373z" />
<glyph unicode="&#xa3;" horiz-adv-x="1290" d="M117 147q0 79 54 131t142 52q32 0 68.5 -10t52.5 -21q-1 37 1 50t-3.5 52t-7 54.5t-9.5 57t-11.5 58.5t-13 60.5t-13.5 62.5h-213v41h205q-31 174 -31 283q0 174 98 284.5t281 110.5q61 0 119 -17t98 -40.5t76 -55t54 -52t32 -40.5l-33 -30q-2 3 -8 10q-23 29 -38 46 t-48.5 47t-65.5 47t-81.5 30.5t-104.5 13.5q-164 0 -251 -98t-87 -256q0 -118 33 -283h536v-41h-528q4 -18 12 -56t11 -54.5t10.5 -53.5t9.5 -52t7 -51t5 -50t2 -48.5t-2 -47.5q33 -19 90.5 -66t106 -88t108 -74t105.5 -33q227 0 227 394h39q0 -204 -66.5 -319t-199.5 -115 q-54 0 -118 32t-111 71.5t-102 85t-83 62.5q-31 -251 -201 -251q-74 0 -113.5 45.5t-39.5 121.5zM158 147q0 -56 26 -91.5t86 -35.5q53 0 87.5 33.5t49.5 81t23 117.5q-55 37 -119 37q-65 0 -109 -39t-44 -103z" />
<glyph unicode="&#xa4;" horiz-adv-x="1128" d="M186 270l119 117q-84 94 -84 229q0 138 84 232l-119 119l31 30l119 -120q92 79 225 79q140 0 230 -84l122 125l31 -30l-125 -123q82 -95 82 -228q0 -129 -80 -225l123 -121l-31 -30l-122 122q-91 -81 -230 -81q-134 0 -227 77l-117 -118zM262 616q0 -128 84 -211t215 -83 q133 0 216 83t83 211q0 130 -83.5 214.5t-215.5 84.5q-131 0 -215 -84.5t-84 -214.5z" />
<glyph unicode="&#xa5;" horiz-adv-x="1204" d="M98 1386v7h45l459 -738l457 738h47v-7l-471 -751h377v-41h-389v-182h389v-41h-389v-371h-41v371h-387v41h387v182h-387v41h372z" />
<glyph unicode="&#xa6;" horiz-adv-x="505" d="M231 326h43v-711h-43v711zM231 768v686h43v-686h-43z" />
<glyph unicode="&#xa7;" horiz-adv-x="1333" d="M160 604q0 107 81.5 192.5t245.5 112.5l-104 17q-40 6 -75.5 19.5t-68 36.5t-52 60.5t-19.5 85.5q0 116 130.5 200.5t360.5 84.5q266 0 486 -90l-15 -39q-78 35 -206.5 62.5t-264.5 27.5q-210 0 -330 -74t-120 -172q0 -136 184 -163l400 -60q178 -27 279.5 -107 t101.5 -206q0 -110 -83.5 -186.5t-234.5 -102.5q73 -13 125 -28.5t99 -41t70.5 -64.5t23.5 -91q0 -87 -68.5 -151.5t-183.5 -96t-260 -31.5q-254 0 -480 92l13 39q226 -90 467 -90q133 0 238.5 26.5t169 81t63.5 130.5q0 35 -14.5 62t-37.5 45.5t-63.5 33.5t-80.5 24.5 t-101 20.5l-369 66q-163 30 -235 93t-72 181zM201 604q0 -100 61 -154.5t211 -80.5l238 -41q194 2 308 72t114 192q0 108 -88.5 178t-260.5 96l-166 25q-109 -1 -192.5 -27.5t-130.5 -69t-70.5 -90.5t-23.5 -100z" />
<glyph unicode="&#xa8;" horiz-adv-x="1228" d="M334 1378q0 54 45 54q41 0 41 -54q0 -53 -41 -53q-45 0 -45 53zM838 1378q0 54 45 54q41 0 41 -54q0 -53 -41 -53q-45 0 -45 53z" />
<glyph unicode="&#xa9;" horiz-adv-x="1728" d="M147 694q0 152 54.5 285.5t149.5 228.5t227.5 150t283.5 55q152 0 285.5 -55t228.5 -150t150 -228.5t55 -285.5q0 -201 -93 -364.5t-258 -256.5t-368 -93q-201 0 -365 93t-257 256.5t-93 364.5zM188 694q0 -141 52 -266.5t141 -214.5t214.5 -141t266.5 -52q143 0 269 52 t215.5 141t141.5 214.5t52 266.5q0 143 -52 269t-141.5 215.5t-215.5 141.5t-269 52q-141 0 -266.5 -52t-214.5 -141.5t-141 -215.5t-52 -269zM510 696q0 153 101.5 255t256.5 102q171 0 273 -121l-27 -25q-42 51 -107 78t-141 27q-138 0 -226.5 -89.5t-88.5 -226.5 q0 -138 88.5 -226.5t226.5 -88.5q76 0 141 26.5t107 75.5l27 -24q-105 -121 -273 -121q-155 0 -256.5 102t-101.5 256z" />
<glyph unicode="&#xaa;" horiz-adv-x="1034" d="M203 946q0 114 89 172t234 58q66 0 140 -19v41q0 89 -43 129.5t-140 40.5q-119 0 -207 -45l-10 41q39 20 103 32.5t114 12.5q6 0 18.5 -1t18.5 -1q99 -16 143 -61.5t44 -145.5v-338q0 -43 15 -64.5t50 -21.5q30 0 74 29l10 -35q-46 -33 -92 -33q-86 0 -98 92 q-96 -92 -226 -92q-107 0 -172 55t-65 154zM219 498v41h604v-41h-604zM244 946q0 -76 53 -122t143 -46q126 0 226 96v242q-55 19 -140 19q-129 0 -205.5 -45.5t-76.5 -143.5z" />
<glyph unicode="&#xab;" horiz-adv-x="1040" d="M150 612v17l321 397h6l15 -33l-299 -372l301 -373l-17 -33h-6zM535 612v17l321 397h6l15 -33l-299 -372l301 -373l-17 -33h-6z" />
<glyph unicode="&#xac;" horiz-adv-x="1318" d="M215 721v41h907v-473h-41v432h-866z" />
<glyph unicode="&#xad;" horiz-adv-x="1110" d="M195 598v43h720v-43h-720z" />
<glyph unicode="&#xae;" horiz-adv-x="1728" d="M147 694q0 152 54.5 285.5t149.5 228.5t227.5 150t283.5 55q152 0 285.5 -55t228.5 -150t150 -228.5t55 -285.5q0 -201 -93 -364.5t-258 -256.5t-368 -93q-201 0 -365 93t-257 256.5t-93 364.5zM188 694q0 -141 52 -266.5t141 -214.5t214.5 -141t266.5 -52q143 0 269 52 t215.5 141t141.5 214.5t52 266.5q0 143 -52 269t-141.5 215.5t-215.5 141.5t-269 52q-141 0 -266.5 -52t-214.5 -141.5t-141 -215.5t-52 -269zM612 346v696h301q97 0 163.5 -55.5t66.5 -161.5q0 -51 -17 -91t-42.5 -63t-58 -38t-60 -20t-52.5 -5h-45l312 -258v-4h-60 l-313 262h-154v-262h-41zM653 647h260q80 0 134.5 47.5t54.5 128.5q0 89 -55 136t-134 47h-260v-359z" />
<glyph unicode="&#xaf;" horiz-adv-x="1228" d="M393 1337v41h469v-41h-469z" />
<glyph unicode="&#xb0;" horiz-adv-x="985" d="M152 1071q0 147 95.5 243.5t244.5 96.5q150 0 244.5 -96.5t94.5 -243.5q0 -146 -94.5 -241t-244.5 -95q-149 0 -244.5 95.5t-95.5 240.5zM193 1071q0 -128 84 -211.5t215 -83.5q132 0 215.5 83t83.5 212q0 130 -83.5 214.5t-215.5 84.5q-131 0 -215 -84.5t-84 -214.5z " />
<glyph unicode="&#xb1;" horiz-adv-x="1351" d="M223 207v41h905v-41h-905zM223 821v41h432v432h41v-432h432v-41h-432v-370h-41v370h-432z" />
<glyph unicode="&#xb2;" horiz-adv-x="659" d="M100 1407q2 95 62 153t166 58q105 0 160 -55t55 -142q0 -65 -32.5 -119t-102.5 -106l-238 -178h395v-37h-456v37l272 205q63 47 93 92.5t30 101.5q0 71 -45 116.5t-131 45.5q-89 0 -138 -49t-51 -127z" />
<glyph unicode="&#xb3;" horiz-adv-x="667" d="M102 1016l13 37q95 -43 198 -43q90 0 150.5 39t60.5 106q0 60 -46.5 95.5t-131.5 35.5h-172v37h172q71 0 113.5 39t42.5 90q0 127 -189 127q-62 0 -102.5 -11t-91.5 -36l-13 37q106 49 207 49q103 0 165.5 -43.5t62.5 -120.5q0 -56 -31.5 -98t-89.5 -49q69 -11 106 -50.5 t37 -105.5q0 -83 -69.5 -131.5t-180.5 -48.5q-21 0 -41.5 1.5t-39.5 5.5t-34 7t-32 8.5t-25 8t-23 8t-16 6.5z" />
<glyph unicode="&#xb4;" horiz-adv-x="1228" d="M518 1257l170 261h51l-170 -261h-51z" />
<glyph unicode="&#xb5;" horiz-adv-x="1273" d="M221 -385v1456h41v-620q0 -193 95.5 -312t279.5 -119q162 0 275.5 92.5t148.5 237.5v721h41v-1071h-41v244q-56 -121 -166 -192.5t-258 -71.5q-139 0 -234 63.5t-141 175.5v-604h-41z" />
<glyph unicode="&#xb6;" horiz-adv-x="966" d="M86 868q0 95 58 148t151 55h158v-1456h-43v1053h-115q-92 0 -150.5 53t-58.5 147zM696 -385v1456h43v-1456h-43z" />
<glyph unicode="&#xb7;" horiz-adv-x="524" d="M195 614q0 76 65 76q70 0 70 -76q0 -75 -70 -75q-65 0 -65 75z" />
<glyph unicode="&#xb8;" horiz-adv-x="1228" d="M449 -379l12 39q70 -25 131 -25q66 0 106.5 25.5t40.5 75.5q0 39 -32.5 60.5t-94.5 21.5q-56 0 -123 -19l-4 6l50 195h40l-36 -150q45 9 75 9q76 0 121 -33.5t45 -89.5q0 -67 -54 -104.5t-134 -37.5q-72 0 -143 27z" />
<glyph unicode="&#xb9;" horiz-adv-x="499" d="M55 1487l262 119h39v-627h-39v586l-245 -113z" />
<glyph unicode="&#xba;" horiz-adv-x="1077" d="M199 1071q0 147 95.5 243.5t244.5 96.5q150 0 245 -96.5t95 -243.5q0 -146 -95 -241t-245 -95q-149 0 -244.5 95.5t-95.5 240.5zM238 498v41h604v-41h-604zM240 1071q0 -128 84 -211.5t215 -83.5q133 0 216 83t83 212q0 130 -83.5 214.5t-215.5 84.5q-131 0 -215 -84.5 t-84 -214.5z" />
<glyph unicode="&#xbb;" horiz-adv-x="1040" d="M162 993l16 33h6l322 -397v-17l-322 -397h-6l-14 33l299 373zM547 993l16 33h6l322 -397v-17l-322 -397h-6l-14 33l299 373z" />
<glyph unicode="&#xbc;" horiz-adv-x="1486" d="M76 1282l262 119h39v-627h-39v586l-246 -113zM246 0v6l753 1387h41v-7l-753 -1386h-41zM811 145v37l383 445h51v-445h150v-37h-150v-145h-39v145h-395zM860 182h346v404z" />
<glyph unicode="&#xbd;" horiz-adv-x="1406" d="M78 1272l262 119h39v-627h-39v586l-246 -113zM248 0v6l753 1387h41v-7l-753 -1386h-41zM834 426q2 95 61.5 153t165.5 58q105 0 160 -55t55 -142q0 -65 -32.5 -119t-102.5 -106l-238 -178h395v-37h-456v37l272 205q63 47 93 92.5t30 101.5q0 71 -45 116.5t-131 45.5 q-89 0 -138 -49t-51 -127z" />
<glyph unicode="&#xbe;" horiz-adv-x="1642" d="M125 811l12 37q95 -43 199 -43q90 0 150.5 39t60.5 106q0 60 -46.5 95.5t-131.5 35.5h-172v37h172q71 0 113 39t42 90q0 127 -188 127q-62 0 -103 -11t-92 -36l-12 37q106 49 207 49q103 0 165 -43.5t62 -120.5q0 -56 -31.5 -98t-89.5 -49q69 -11 106.5 -50.5 t37.5 -105.5q0 -83 -69.5 -131.5t-180.5 -48.5q-21 0 -41.5 1.5t-39.5 5.5t-34 7t-32 8.5t-25 8t-23 8t-16 6.5zM403 0v6l754 1387h41v-7l-754 -1386h-41zM969 145v37l383 445h51v-445h149v-37h-149v-145h-39v145h-395zM1018 182h346v404z" />
<glyph unicode="&#xbf;" horiz-adv-x="944" d="M121 8q0 51 11 96t26.5 76.5t42.5 65.5t47 54t53 51q8 7 12 11l150 142q40 37 51.5 60.5t11.5 66.5q0 26 -8 57h43q6 -27 6 -57q0 -53 -16.5 -83.5t-61.5 -72.5l-151 -145q-33 -32 -43.5 -42.5t-38.5 -41.5t-39 -50.5t-27 -51.5t-22 -65t-6 -71q0 -136 93 -218.5 t232 -82.5q234 0 328 191l39 -25q-21 -41 -50.5 -75.5t-73 -65.5t-106 -48.5t-137.5 -17.5q-159 0 -262.5 95t-103.5 247zM467 1024q0 76 70 76q65 0 65 -76t-65 -76q-70 0 -70 76z" />
<glyph unicode="&#xc0;" d="M76 0l626 1393h41l586 -1393h-41l-160 377h-841l-170 -377h-41zM305 418h807l-391 928zM528 1839h52l170 -260h-52z" />
<glyph unicode="&#xc1;" d="M76 0l626 1393h41l586 -1393h-41l-160 377h-841l-170 -377h-41zM305 418h807l-391 928zM672 1579l170 260h51l-170 -260h-51z" />
<glyph unicode="&#xc2;" d="M76 0l626 1393h41l586 -1393h-41l-160 377h-841l-170 -377h-41zM305 418h807l-391 928zM465 1579l231 260h52l231 -260h-55l-203 225l-201 -225h-55z" />
<glyph unicode="&#xc3;" d="M76 0l626 1393h41l586 -1393h-41l-160 377h-841l-170 -377h-41zM305 418h807l-391 928zM406 1667q28 50 72.5 86.5t101.5 36.5q32 0 73.5 -24t74 -52t70 -52t62.5 -24q91 0 146 109l28 -27q-27 -50 -72 -86.5t-100 -36.5q-33 0 -74 23.5t-73.5 52.5t-70.5 52.5t-64 23.5 q-86 0 -146 -109z" />
<glyph unicode="&#xc4;" d="M76 0l626 1393h41l586 -1393h-41l-160 377h-841l-170 -377h-41zM305 418h807l-391 928zM426 1700q0 53 45 53q41 0 41 -53t-41 -53q-45 0 -45 53zM930 1700q0 53 45 53q41 0 41 -53t-41 -53q-45 0 -45 53z" />
<glyph unicode="&#xc5;" d="M76 0l610 1356q-72 12 -120 68t-48 130q0 83 59 142t142 59t142 -59t59 -142q0 -73 -46 -127.5t-116 -68.5l571 -1358h-41l-160 377h-841l-170 -377h-41zM305 418h807l-391 928zM559 1554q0 -66 47 -112.5t113 -46.5t113 46.5t47 112.5t-47 113t-113 47t-113 -47 t-47 -113z" />
<glyph unicode="&#xc6;" horiz-adv-x="2150" d="M43 0l938 1393h1028v-41h-987v-598h838v-41h-838v-672h987v-41h-1028v377h-633l-254 -377h-51zM377 418h604v899z" />
<glyph unicode="&#xc7;" horiz-adv-x="1552" d="M147 696q0 151 54.5 284t149.5 228t227.5 150t283.5 55q170 0 310.5 -62.5t238.5 -179.5l-27 -30q-92 109 -227.5 170t-294.5 61q-143 0 -268 -51.5t-214 -141t-140.5 -215t-51.5 -268.5t51.5 -268.5t140.5 -215t214 -141t268 -51.5q159 0 294.5 61.5t227.5 170.5l27 -31 q-98 -116 -238.5 -178.5t-310.5 -62.5q-6 0 -17.5 1t-17.5 1l-30 -132q45 9 75 9q76 0 121 -33.5t45 -89.5q0 -67 -54 -104.5t-134 -37.5q-72 0 -143 27l12 39q70 -25 131 -25q66 0 106.5 25.5t40.5 75.5q0 39 -32.5 60.5t-94.5 21.5q-56 0 -122 -19l-5 6l45 179 q-183 16 -329.5 112.5t-229 253.5t-82.5 346z" />
<glyph unicode="&#xc8;" horiz-adv-x="1415" d="M246 0v1393h1028v-41h-987v-598h837v-41h-837v-672h987v-41h-1028zM565 1839h51l170 -260h-51z" />
<glyph unicode="&#xc9;" horiz-adv-x="1415" d="M246 0v1393h1028v-41h-987v-598h837v-41h-837v-672h987v-41h-1028zM717 1579l170 260h51l-170 -260h-51z" />
<glyph unicode="&#xca;" horiz-adv-x="1415" d="M246 0v1393h1028v-41h-987v-598h837v-41h-837v-672h987v-41h-1028zM502 1579l231 260h51l232 -260h-55l-203 225l-201 -225h-55z" />
<glyph unicode="&#xcb;" horiz-adv-x="1415" d="M246 0v1393h1028v-41h-987v-598h837v-41h-837v-672h987v-41h-1028zM463 1700q0 53 45 53q41 0 41 -53t-41 -53q-45 0 -45 53zM967 1700q0 53 45 53q41 0 41 -53t-41 -53q-45 0 -45 53z" />
<glyph unicode="&#xcc;" horiz-adv-x="532" d="M90 1839h51l170 -260h-51zM246 0v1393h41v-1393h-41z" />
<glyph unicode="&#xcd;" horiz-adv-x="532" d="M236 1579l170 260h51l-170 -260h-51zM246 0v1393h41v-1393h-41z" />
<glyph unicode="&#xce;" horiz-adv-x="532" d="M8 1579l232 260h51l231 -260h-55l-203 225l-201 -225h-55zM246 0v1393h41v-1393h-41z" />
<glyph unicode="&#xcf;" horiz-adv-x="532" d="M-31 1700q0 53 45 53q41 0 41 -53t-41 -53q-45 0 -45 53zM246 0v1393h41v-1393h-41zM473 1700q0 53 45 53q41 0 41 -53t-41 -53q-45 0 -45 53z" />
<glyph unicode="&#xd0;" horiz-adv-x="1617" d="M123 682v41h592v-41h-592zM258 0v1393h41v-1393h-41zM266 0v41h482q147 0 270.5 42.5t214.5 123.5t141.5 206t50.5 281q0 210 -88.5 360t-239.5 223.5t-349 74.5h-474v41h474q155 -1 286 -47t227.5 -132.5t150.5 -220t54 -299.5q0 -165 -54 -297.5t-150.5 -218.5 t-227.5 -132t-286 -46h-482z" />
<glyph unicode="&#xd1;" horiz-adv-x="1699" d="M246 0v1393h41l1126 -1332v1332h41v-1393h-41l-1126 1325v-1325h-41zM555 1667q28 50 72.5 86.5t101.5 36.5q32 0 73.5 -24t74.5 -52t70.5 -52t62.5 -24q90 0 145 109l29 -27q-27 -50 -72 -86.5t-100 -36.5q-33 0 -74.5 23.5t-74 52.5t-70.5 52.5t-64 23.5 q-85 0 -145 -109z" />
<glyph unicode="&#xd2;" horiz-adv-x="1728" d="M147 694q0 152 54.5 285.5t149.5 228.5t227.5 150t283.5 55q152 0 285.5 -55t228.5 -150t150 -228.5t55 -285.5q0 -201 -93 -364.5t-258 -256.5t-368 -93q-201 0 -365 93t-257 256.5t-93 364.5zM188 694q0 -143 51 -268t140.5 -214.5t214.5 -140.5t268 -51 q193 0 348 87.5t242.5 241.5t87.5 345q0 193 -87.5 348t-242.5 242.5t-348 87.5q-191 0 -345 -87.5t-241.5 -242.5t-87.5 -348zM670 1839h51l170 -260h-51z" />
<glyph unicode="&#xd3;" horiz-adv-x="1728" d="M147 694q0 152 54.5 285.5t149.5 228.5t227.5 150t283.5 55q152 0 285.5 -55t228.5 -150t150 -228.5t55 -285.5q0 -201 -93 -364.5t-258 -256.5t-368 -93q-201 0 -365 93t-257 256.5t-93 364.5zM188 694q0 -143 51 -268t140.5 -214.5t214.5 -140.5t268 -51 q193 0 348 87.5t242.5 241.5t87.5 345q0 193 -87.5 348t-242.5 242.5t-348 87.5q-191 0 -345 -87.5t-241.5 -242.5t-87.5 -348zM834 1579l170 260h51l-170 -260h-51z" />
<glyph unicode="&#xd4;" horiz-adv-x="1728" d="M147 694q0 152 54.5 285.5t149.5 228.5t227.5 150t283.5 55q152 0 285.5 -55t228.5 -150t150 -228.5t55 -285.5q0 -201 -93 -364.5t-258 -256.5t-368 -93q-201 0 -365 93t-257 256.5t-93 364.5zM188 694q0 -143 51 -268t140.5 -214.5t214.5 -140.5t268 -51 q193 0 348 87.5t242.5 241.5t87.5 345q0 193 -87.5 348t-242.5 242.5t-348 87.5q-191 0 -345 -87.5t-241.5 -242.5t-87.5 -348zM604 1579l232 260h51l231 -260h-55l-203 225l-201 -225h-55z" />
<glyph unicode="&#xd5;" horiz-adv-x="1728" d="M147 694q0 152 54.5 285.5t149.5 228.5t227.5 150t283.5 55q152 0 285.5 -55t228.5 -150t150 -228.5t55 -285.5q0 -201 -93 -364.5t-258 -256.5t-368 -93q-201 0 -365 93t-257 256.5t-93 364.5zM188 694q0 -143 51 -268t140.5 -214.5t214.5 -140.5t268 -51 q193 0 348 87.5t242.5 241.5t87.5 345q0 193 -87.5 348t-242.5 242.5t-348 87.5q-191 0 -345 -87.5t-241.5 -242.5t-87.5 -348zM547 1667q28 50 72.5 86.5t101.5 36.5q32 0 73.5 -24t74 -52t70 -52t62.5 -24q91 0 146 109l29 -27q-27 -50 -72 -86.5t-100 -36.5 q-33 0 -74.5 23.5t-74 52.5t-70.5 52.5t-64 23.5q-86 0 -146 -109z" />
<glyph unicode="&#xd6;" horiz-adv-x="1728" d="M147 694q0 152 54.5 285.5t149.5 228.5t227.5 150t283.5 55q152 0 285.5 -55t228.5 -150t150 -228.5t55 -285.5q0 -201 -93 -364.5t-258 -256.5t-368 -93q-201 0 -365 93t-257 256.5t-93 364.5zM188 694q0 -143 51 -268t140.5 -214.5t214.5 -140.5t268 -51 q193 0 348 87.5t242.5 241.5t87.5 345q0 193 -87.5 348t-242.5 242.5t-348 87.5q-191 0 -345 -87.5t-241.5 -242.5t-87.5 -348zM567 1700q0 53 45 53q41 0 41 -53t-41 -53q-45 0 -45 53zM1071 1700q0 53 45 53q41 0 41 -53t-41 -53q-45 0 -45 53z" />
<glyph unicode="&#xd7;" horiz-adv-x="1048" d="M190 313l306 305l-306 306l29 28l305 -305l305 305l29 -28l-305 -306l305 -305l-29 -28l-305 305l-305 -305z" />
<glyph unicode="&#xd8;" horiz-adv-x="1728" d="M147 694q0 152 54.5 285.5t149.5 228.5t227.5 150t283.5 55q251 0 443 -143l98 123h45v-7l-115 -141q117 -98 182.5 -240.5t65.5 -310.5q0 -201 -93 -364.5t-258 -256.5t-368 -93q-252 0 -438 141l-98 -121h-45v6l112 139q-116 98 -181 240.5t-65 308.5zM188 694 q0 -158 60.5 -292t169.5 -226l860 1063q-179 133 -416 133q-191 0 -345 -87.5t-241.5 -242.5t-87.5 -348zM449 152q178 -132 413 -132q193 0 348 87.5t242.5 241.5t87.5 345q0 159 -61 293.5t-170 226.5z" />
<glyph unicode="&#xd9;" horiz-adv-x="1597" d="M227 549v844h41v-844q0 -119 31.5 -215t94.5 -168t165.5 -111t237.5 -39q109 0 197.5 28t150 76.5t103.5 116.5t61.5 146.5t19.5 167.5v842h41v-844q0 -117 -35.5 -219.5t-104.5 -182.5t-180.5 -126t-252.5 -46q-280 0 -425 156.5t-145 417.5zM604 1839h51l170 -260h-51z " />
<glyph unicode="&#xda;" horiz-adv-x="1597" d="M227 549v844h41v-844q0 -119 31.5 -215t94.5 -168t165.5 -111t237.5 -39q109 0 197.5 28t150 76.5t103.5 116.5t61.5 146.5t19.5 167.5v842h41v-844q0 -117 -35.5 -219.5t-104.5 -182.5t-180.5 -126t-252.5 -46q-280 0 -425 156.5t-145 417.5zM768 1579l170 260h51 l-170 -260h-51z" />
<glyph unicode="&#xdb;" horiz-adv-x="1597" d="M227 549v844h41v-844q0 -119 31.5 -215t94.5 -168t165.5 -111t237.5 -39q109 0 197.5 28t150 76.5t103.5 116.5t61.5 146.5t19.5 167.5v842h41v-844q0 -117 -35.5 -219.5t-104.5 -182.5t-180.5 -126t-252.5 -46q-280 0 -425 156.5t-145 417.5zM539 1579l231 260h51 l232 -260h-56l-202 225l-201 -225h-55z" />
<glyph unicode="&#xdc;" horiz-adv-x="1597" d="M227 549v844h41v-844q0 -119 31.5 -215t94.5 -168t165.5 -111t237.5 -39q109 0 197.5 28t150 76.5t103.5 116.5t61.5 146.5t19.5 167.5v842h41v-844q0 -117 -35.5 -219.5t-104.5 -182.5t-180.5 -126t-252.5 -46q-280 0 -425 156.5t-145 417.5zM502 1700q0 53 45 53 q41 0 41 -53t-41 -53q-45 0 -45 53zM1006 1700q0 53 45 53q41 0 41 -53t-41 -53q-45 0 -45 53z" />
<glyph unicode="&#xdd;" horiz-adv-x="1413" d="M80 1386v7h45l582 -742l581 742h45v-7l-606 -772v-614h-41v612zM676 1579l170 260h51l-170 -260h-51z" />
<glyph unicode="&#xde;" horiz-adv-x="1380" d="M246 0v1393h41v-246h512q100 0 181.5 -22.5t148.5 -71.5t104 -135.5t37 -204.5q0 -107 -37.5 -190t-103 -133.5t-149.5 -76.5t-181 -26h-512v-287h-41zM287 328h510q91 0 167.5 22.5t136.5 68t94 121t34 173.5q0 108 -33.5 186.5t-94.5 122.5t-136 64t-168 20h-510v-778z " />
<glyph unicode="&#xdf;" horiz-adv-x="1341" d="M223 0v961q0 230 122.5 372t328.5 142q175 0 294 -106t119 -265q0 -58 -23.5 -113t-57 -94t-67.5 -71t-57.5 -57t-23.5 -40q0 -10 25.5 -29.5t64 -42.5t83.5 -59t83.5 -75.5t64 -95.5t25.5 -116q0 -155 -110.5 -243t-282.5 -88q-189 0 -305 71l14 41q119 -72 291 -72 q150 0 251 78.5t101 212.5q0 58 -25.5 110t-64 88t-83.5 70t-83.5 57.5t-64 48t-25.5 44.5q0 23 23.5 52t57.5 60.5t68 68t57.5 87.5t23.5 107q0 146 -109 238t-264 92q-189 0 -299.5 -127.5t-110.5 -345.5v-961h-41z" />
<glyph unicode="&#xe0;" horiz-adv-x="1179" d="M125 309q0 80 27.5 144t76.5 107.5t118 72.5t149 42t174 13q141 0 256 -35v64q0 161 -88 246.5t-256 85.5q-185 0 -334 -76l-12 41q69 35 165.5 55.5t182.5 20.5q183 0 283 -96.5t100 -276.5v-717h-41v139q-167 -159 -406 -159q-181 0 -288 88.5t-107 240.5zM166 309 q0 -133 95.5 -211t258.5 -78q134 0 230.5 49t175.5 124v421q-105 33 -256 33q-110 0 -199 -18.5t-158.5 -57.5t-108 -105.5t-38.5 -156.5zM422 1518h51l170 -261h-51z" />
<glyph unicode="&#xe1;" horiz-adv-x="1179" d="M125 309q0 80 27.5 144t76.5 107.5t118 72.5t149 42t174 13q141 0 256 -35v64q0 161 -88 246.5t-256 85.5q-185 0 -334 -76l-12 41q69 35 165.5 55.5t182.5 20.5q183 0 283 -96.5t100 -276.5v-717h-41v139q-167 -159 -406 -159q-181 0 -288 88.5t-107 240.5zM166 309 q0 -133 95.5 -211t258.5 -78q134 0 230.5 49t175.5 124v421q-105 33 -256 33q-110 0 -199 -18.5t-158.5 -57.5t-108 -105.5t-38.5 -156.5zM569 1257l170 261h52l-170 -261h-52z" />
<glyph unicode="&#xe2;" horiz-adv-x="1179" d="M125 309q0 80 27.5 144t76.5 107.5t118 72.5t149 42t174 13q141 0 256 -35v64q0 161 -88 246.5t-256 85.5q-185 0 -334 -76l-12 41q69 35 165.5 55.5t182.5 20.5q183 0 283 -96.5t100 -276.5v-717h-41v139q-167 -159 -406 -159q-181 0 -288 88.5t-107 240.5zM166 309 q0 -133 95.5 -211t258.5 -78q134 0 230.5 49t175.5 124v421q-105 33 -256 33q-110 0 -199 -18.5t-158.5 -57.5t-108 -105.5t-38.5 -156.5zM340 1257l231 261h52l231 -261h-55l-203 226l-201 -226h-55z" />
<glyph unicode="&#xe3;" horiz-adv-x="1179" d="M125 309q0 80 27.5 144t76.5 107.5t118 72.5t149 42t174 13q141 0 256 -35v64q0 161 -88 246.5t-256 85.5q-185 0 -334 -76l-12 41q69 35 165.5 55.5t182.5 20.5q183 0 283 -96.5t100 -276.5v-717h-41v139q-167 -159 -406 -159q-181 0 -288 88.5t-107 240.5zM166 309 q0 -133 95.5 -211t258.5 -78q134 0 230.5 49t175.5 124v421q-105 33 -256 33q-110 0 -199 -18.5t-158.5 -57.5t-108 -105.5t-38.5 -156.5zM295 1346q28 50 72.5 86t101.5 36q32 0 73.5 -23.5t74.5 -52t70.5 -52t62.5 -23.5q90 0 145 108l29 -26q-27 -50 -72 -86.5 t-100 -36.5q-33 0 -74.5 23.5t-74 52t-70.5 52t-64 23.5q-86 0 -145 -108z" />
<glyph unicode="&#xe4;" horiz-adv-x="1179" d="M125 309q0 80 27.5 144t76.5 107.5t118 72.5t149 42t174 13q141 0 256 -35v64q0 161 -88 246.5t-256 85.5q-185 0 -334 -76l-12 41q69 35 165.5 55.5t182.5 20.5q183 0 283 -96.5t100 -276.5v-717h-41v139q-167 -159 -406 -159q-181 0 -288 88.5t-107 240.5zM166 309 q0 -133 95.5 -211t258.5 -78q134 0 230.5 49t175.5 124v421q-105 33 -256 33q-110 0 -199 -18.5t-158.5 -57.5t-108 -105.5t-38.5 -156.5zM297 1378q0 54 45 54q41 0 41 -54q0 -53 -41 -53q-45 0 -45 53zM801 1378q0 54 45 54q41 0 41 -54q0 -53 -41 -53q-45 0 -45 53z" />
<glyph unicode="&#xe5;" horiz-adv-x="1179" d="M125 309q0 80 27.5 144t76.5 107.5t118 72.5t149 42t174 13q141 0 256 -35v64q0 161 -88 246.5t-256 85.5q-185 0 -334 -76l-12 41q69 35 165.5 55.5t182.5 20.5q183 0 283 -96.5t100 -276.5v-717h-41v139q-167 -159 -406 -159q-181 0 -288 88.5t-107 240.5zM166 309 q0 -133 95.5 -211t258.5 -78q134 0 230.5 49t175.5 124v421q-105 33 -256 33q-110 0 -199 -18.5t-158.5 -57.5t-108 -105.5t-38.5 -156.5zM397 1372q0 83 59 142t142 59t142 -59t59 -142t-59 -142t-142 -59t-142 59t-59 142zM438 1372q0 -66 47 -113t113 -47t113 47t47 113 t-47 113t-113 47t-113 -47t-47 -113z" />
<glyph unicode="&#xe6;" horiz-adv-x="1974" d="M125 309q0 80 27.5 144t76.5 107.5t118 72.5t149 42t174 13q157 0 256 -24q0 107 -12.5 174.5t-48 117.5t-99 71.5t-164.5 21.5q-205 0 -354 -76l-12 41q141 73 372 73q85 0 147.5 -16.5t99.5 -43t61 -69t34 -84.5t15 -100q18 56 50.5 109t83 104t126 82t164.5 31 q107 0 192 -36t137.5 -98t79.5 -141.5t27 -171.5q0 -78 -17 -141h-841q2 -87 14.5 -158t42.5 -136.5t77 -110t121.5 -71t172.5 -26.5q120 0 207 37t176 107l26 -37q-90 -72 -186.5 -109t-222.5 -37q-165 0 -278.5 75t-155.5 208q-184 -274 -441 -274q-181 0 -288 88.5 t-107 240.5zM166 309q0 -133 95.5 -211t258.5 -78q72 0 138 24t116.5 65t87.5 84t64 90v338q-111 26 -256 26q-110 0 -199 -18.5t-158.5 -57.5t-108 -105.5t-38.5 -156.5zM971 553h805q8 62 8 100q0 110 -41.5 200t-132 148t-217.5 58q-87 0 -159 -31t-120 -81.5t-81 -117.5 t-47.5 -136t-14.5 -140z" />
<glyph unicode="&#xe7;" horiz-adv-x="1247" d="M150 537q0 243 158 403t405 160q234 0 393 -146l-25 -32q-147 137 -368 137q-229 0 -376 -149t-147 -373q0 -225 147.5 -375t375.5 -150q220 0 368 138l25 -33q-159 -146 -393 -146q-27 0 -39 2l-29 -123q45 9 76 9q76 0 121 -33.5t45 -89.5q0 -67 -54.5 -104.5 t-134.5 -37.5q-72 0 -143 27l12 39q70 -25 131 -25q67 0 107.5 25.5t40.5 75.5q0 39 -32.5 60.5t-94.5 21.5q-57 0 -123 -19l-4 6l43 172q-217 25 -351 180.5t-134 379.5z" />
<glyph unicode="&#xe8;" horiz-adv-x="1318" d="M150 532q0 115 38.5 218t108 181t174.5 123.5t231 45.5q118 0 209.5 -35.5t146.5 -98t83 -142t28 -171.5q0 -82 -16 -141h-965q2 -105 34 -193.5t94.5 -159t165.5 -110t237 -39.5q219 0 403 144l27 -37q-184 -146 -430 -146q-146 0 -258 44.5t-178.5 123t-99.5 177.5 t-33 216zM188 553h932q8 62 8 100q0 82 -25 153.5t-75 129t-134 90.5t-192 33q-153 0 -270.5 -70t-179 -184t-64.5 -252zM541 1518h51l170 -261h-51z" />
<glyph unicode="&#xe9;" horiz-adv-x="1318" d="M150 532q0 115 38.5 218t108 181t174.5 123.5t231 45.5q118 0 209.5 -35.5t146.5 -98t83 -142t28 -171.5q0 -82 -16 -141h-965q2 -105 34 -193.5t94.5 -159t165.5 -110t237 -39.5q219 0 403 144l27 -37q-184 -146 -430 -146q-146 0 -258 44.5t-178.5 123t-99.5 177.5 t-33 216zM188 553h932q8 62 8 100q0 82 -25 153.5t-75 129t-134 90.5t-192 33q-153 0 -270.5 -70t-179 -184t-64.5 -252zM664 1257l170 261h51l-170 -261h-51z" />
<glyph unicode="&#xea;" horiz-adv-x="1318" d="M150 532q0 115 38.5 218t108 181t174.5 123.5t231 45.5q118 0 209.5 -35.5t146.5 -98t83 -142t28 -171.5q0 -82 -16 -141h-965q2 -105 34 -193.5t94.5 -159t165.5 -110t237 -39.5q219 0 403 144l27 -37q-184 -146 -430 -146q-146 0 -258 44.5t-178.5 123t-99.5 177.5 t-33 216zM188 553h932q8 62 8 100q0 82 -25 153.5t-75 129t-134 90.5t-192 33q-153 0 -270.5 -70t-179 -184t-64.5 -252zM457 1257l231 261h51l232 -261h-56l-202 226l-201 -226h-55z" />
<glyph unicode="&#xeb;" horiz-adv-x="1318" d="M150 532q0 115 38.5 218t108 181t174.5 123.5t231 45.5q118 0 209.5 -35.5t146.5 -98t83 -142t28 -171.5q0 -82 -16 -141h-965q2 -105 34 -193.5t94.5 -159t165.5 -110t237 -39.5q219 0 403 144l27 -37q-184 -146 -430 -146q-146 0 -258 44.5t-178.5 123t-99.5 177.5 t-33 216zM188 553h932q8 62 8 100q0 82 -25 153.5t-75 129t-134 90.5t-192 33q-153 0 -270.5 -70t-179 -184t-64.5 -252zM418 1378q0 54 45 54q41 0 41 -54q0 -53 -41 -53q-45 0 -45 53zM922 1378q0 54 45 54q41 0 41 -54q0 -53 -41 -53q-45 0 -45 53z" />
<glyph unicode="&#xec;" horiz-adv-x="487" d="M63 1518h52l170 -261h-52zM223 0v1071h41v-1071h-41z" />
<glyph unicode="&#xed;" horiz-adv-x="487" d="M221 1257l170 261h51l-170 -261h-51zM223 0v1071h41v-1071h-41z" />
<glyph unicode="&#xee;" horiz-adv-x="487" d="M-14 1257l231 261h51l232 -261h-56l-202 226l-201 -226h-55zM223 0v1071h41v-1071h-41z" />
<glyph unicode="&#xef;" horiz-adv-x="487" d="M-51 1378q0 54 45 54q41 0 41 -54q0 -53 -41 -53q-45 0 -45 53zM223 0v1071h41v-1071h-41zM453 1378q0 54 45 54q41 0 41 -54q0 -53 -41 -53q-45 0 -45 53z" />
<glyph unicode="&#xf0;" horiz-adv-x="1318" d="M158 463q0 220 121.5 343.5t328.5 123.5q81 0 155.5 -26t126.5 -63t97.5 -87.5t71 -89.5t45.5 -78q6 55 6 112q0 176 -65.5 321.5t-176.5 250.5l-157 -160l-27 29l156 157q-112 97 -250 144l18 35q144 -47 258 -150l152 154l29 -29l-150 -152q115 -110 184.5 -264 t69.5 -336q0 -328 -143.5 -523t-395.5 -195q-195 0 -324.5 136t-129.5 347zM199 463q0 -190 118 -316.5t295 -126.5q195 0 322.5 135t163.5 367q-14 31 -33.5 66t-64.5 92.5t-96.5 100.5t-130.5 75.5t-165 32.5q-182 0 -295.5 -112t-113.5 -314z" />
<glyph unicode="&#xf1;" horiz-adv-x="1355" d="M223 0v1071h41v-246q59 126 174.5 195.5t270.5 69.5q211 0 324.5 -131.5t113.5 -342.5v-616h-41v616q0 191 -101.5 312t-295.5 121q-171 0 -290.5 -91.5t-154.5 -236.5v-721h-41zM383 1346q28 50 72.5 86t101.5 36q32 0 73.5 -23.5t74.5 -52t70.5 -52t62.5 -23.5 q90 0 145 108l29 -26q-27 -50 -72 -86.5t-100 -36.5q-33 0 -74.5 23.5t-74 52t-70.5 52t-64 23.5q-86 0 -145 -108z" />
<glyph unicode="&#xf2;" d="M147 532q0 121 42 226t115.5 180.5t179 118.5t227.5 43q250 0 408.5 -161t158.5 -407q0 -243 -158.5 -402t-408.5 -159q-163 0 -292.5 73t-200.5 200.5t-71 287.5zM188 532q0 -224 147 -372t376 -148q231 0 378.5 147.5t147.5 372.5q0 228 -147.5 377.5t-378.5 149.5 q-229 0 -376 -150t-147 -377zM518 1518h51l170 -261h-51z" />
<glyph unicode="&#xf3;" d="M147 532q0 121 42 226t115.5 180.5t179 118.5t227.5 43q250 0 408.5 -161t158.5 -407q0 -243 -158.5 -402t-408.5 -159q-163 0 -292.5 73t-200.5 200.5t-71 287.5zM188 532q0 -224 147 -372t376 -148q231 0 378.5 147.5t147.5 372.5q0 228 -147.5 377.5t-378.5 149.5 q-229 0 -376 -150t-147 -377zM682 1257l170 261h51l-170 -261h-51z" />
<glyph unicode="&#xf4;" d="M147 532q0 121 42 226t115.5 180.5t179 118.5t227.5 43q250 0 408.5 -161t158.5 -407q0 -243 -158.5 -402t-408.5 -159q-163 0 -292.5 73t-200.5 200.5t-71 287.5zM188 532q0 -224 147 -372t376 -148q231 0 378.5 147.5t147.5 372.5q0 228 -147.5 377.5t-378.5 149.5 q-229 0 -376 -150t-147 -377zM453 1257l231 261h51l232 -261h-56l-202 226l-201 -226h-55z" />
<glyph unicode="&#xf5;" d="M147 532q0 121 42 226t115.5 180.5t179 118.5t227.5 43q250 0 408.5 -161t158.5 -407q0 -243 -158.5 -402t-408.5 -159q-163 0 -292.5 73t-200.5 200.5t-71 287.5zM188 532q0 -224 147 -372t376 -148q231 0 378.5 147.5t147.5 372.5q0 228 -147.5 377.5t-378.5 149.5 q-229 0 -376 -150t-147 -377zM395 1346q28 50 72.5 86t101.5 36q32 0 73.5 -23.5t74.5 -52t70.5 -52t62.5 -23.5q90 0 145 108l29 -26q-27 -50 -72 -86.5t-100 -36.5q-33 0 -74.5 23.5t-74 52t-70.5 52t-64 23.5q-86 0 -145 -108z" />
<glyph unicode="&#xf6;" d="M147 532q0 121 42 226t115.5 180.5t179 118.5t227.5 43q250 0 408.5 -161t158.5 -407q0 -243 -158.5 -402t-408.5 -159q-163 0 -292.5 73t-200.5 200.5t-71 287.5zM188 532q0 -224 147 -372t376 -148q231 0 378.5 147.5t147.5 372.5q0 228 -147.5 377.5t-378.5 149.5 q-229 0 -376 -150t-147 -377zM416 1378q0 54 45 54q41 0 41 -54q0 -53 -41 -53q-45 0 -45 53zM920 1378q0 54 45 54q41 0 41 -54q0 -53 -41 -53q-45 0 -45 53z" />
<glyph unicode="&#xf7;" horiz-adv-x="1302" d="M197 598v41h905v-41h-905zM555 285q0 38 18 59t52 21q35 0 54 -21t19 -59q0 -80 -73 -80q-70 0 -70 80zM555 954q0 38 18 59t52 21q35 0 54 -21t19 -59q0 -80 -73 -80q-70 0 -70 80z" />
<glyph unicode="&#xf8;" d="M147 532q0 121 42 226t115.5 180.5t179 118.5t227.5 43q218 0 368 -125l76 94h45v-6l-92 -115q81 -76 125.5 -184t44.5 -232q0 -243 -158.5 -402t-408.5 -159q-180 0 -322 90l-49 -61h-45v6l63 78q-101 76 -156 192t-55 256zM188 532q0 -129 52 -237t145 -178l668 825 q-142 117 -342 117q-229 0 -376 -150t-147 -377zM416 94q127 -82 295 -82q231 0 378.5 147.5t147.5 372.5q0 114 -41 213t-115 170z" />
<glyph unicode="&#xf9;" horiz-adv-x="1355" d="M209 455v616h41v-616q0 -191 101.5 -311.5t295.5 -120.5q171 0 290.5 91t154.5 236v721h41v-1071h-41v246q-59 -126 -174.5 -195t-270.5 -69q-211 0 -324.5 131t-113.5 342zM485 1518h52l170 -261h-52z" />
<glyph unicode="&#xfa;" horiz-adv-x="1355" d="M209 455v616h41v-616q0 -191 101.5 -311.5t295.5 -120.5q171 0 290.5 91t154.5 236v721h41v-1071h-41v246q-59 -126 -174.5 -195t-270.5 -69q-211 0 -324.5 131t-113.5 342zM659 1257l170 261h52l-170 -261h-52z" />
<glyph unicode="&#xfb;" horiz-adv-x="1355" d="M209 455v616h41v-616q0 -191 101.5 -311.5t295.5 -120.5q171 0 290.5 91t154.5 236v721h41v-1071h-41v246q-59 -126 -174.5 -195t-270.5 -69q-211 0 -324.5 131t-113.5 342zM420 1257l231 261h51l232 -261h-55l-203 226l-201 -226h-55z" />
<glyph unicode="&#xfc;" horiz-adv-x="1355" d="M209 455v616h41v-616q0 -191 101.5 -311.5t295.5 -120.5q171 0 290.5 91t154.5 236v721h41v-1071h-41v246q-59 -126 -174.5 -195t-270.5 -69q-211 0 -324.5 131t-113.5 342zM377 1378q0 54 45 54q41 0 41 -54q0 -53 -41 -53q-45 0 -45 53zM881 1378q0 54 45 54 q41 0 41 -54q0 -53 -41 -53q-45 0 -45 53z" />
<glyph unicode="&#xfd;" horiz-adv-x="1249" d="M31 -330l16 41q52 -37 102 -56.5t125 -19.5q59 0 104 17t80 53t60.5 79.5t54.5 109.5l43 104l-534 1073h45l512 -1024l453 1024h45l-523 -1188q-31 -70 -59.5 -117.5t-68.5 -89t-92.5 -62t-119.5 -20.5q-126 0 -243 76zM590 1257l170 261h51l-170 -261h-51z" />
<glyph unicode="&#xfe;" horiz-adv-x="1341" d="M223 -385v1839h41v-532q72 72 174 120t217 48q242 0 389.5 -155.5t147.5 -402.5q0 -244 -147.5 -398t-389.5 -154q-115 0 -217 46.5t-174 116.5v-528h-41zM264 197q62 -73 166.5 -125t224.5 -52q224 0 360 143t136 369q0 228 -136 372.5t-360 144.5q-120 0 -224.5 -53.5 t-166.5 -127.5v-671z" />
<glyph unicode="&#xff;" horiz-adv-x="1249" d="M31 -330l16 41q52 -37 102 -56.5t125 -19.5q59 0 104 17t80 53t60.5 79.5t54.5 109.5l43 104l-534 1073h45l512 -1024l453 1024h45l-523 -1188q-31 -70 -59.5 -117.5t-68.5 -89t-92.5 -62t-119.5 -20.5q-126 0 -243 76zM332 1378q0 54 45 54q41 0 41 -54q0 -53 -41 -53 q-45 0 -45 53zM836 1378q0 54 45 54q41 0 41 -54q0 -53 -41 -53q-45 0 -45 53z" />
<glyph unicode="&#x152;" horiz-adv-x="2514" d="M147 694q0 152 54.5 285.5t149.5 228.5t227.5 150t283.5 55q138 0 262 -48.5t222 -135.5v164h1028v-41h-988v-598h838v-41h-838v-672h988v-41h-1028v162q-208 -182 -484 -182q-201 0 -365 93t-257 256.5t-93 364.5zM188 694q0 -143 51 -268t140.5 -214.5t214.5 -140.5 t268 -51q141 0 266 51.5t218 143.5v961q-94 92 -218 144t-266 52q-191 0 -345 -87.5t-241.5 -242.5t-87.5 -348z" />
<glyph unicode="&#x153;" horiz-adv-x="2410" d="M147 532q0 121 42 226t115.5 180.5t179 118.5t227.5 43q208 0 355.5 -113.5t193.5 -300.5q44 184 185.5 299t348.5 115q118 0 209.5 -35.5t146.5 -98t83 -142t28 -171.5q0 -82 -16 -141h-965q2 -83 22 -156.5t61.5 -137.5t102 -110t148.5 -72t196 -26q220 0 404 144 l27 -37q-184 -146 -431 -146q-236 0 -374 109.5t-179 292.5q-48 -182 -194.5 -292t-351.5 -110q-163 0 -292.5 73t-200.5 200.5t-71 287.5zM188 532q0 -224 147 -372t376 -148q231 0 378.5 147.5t147.5 372.5q0 228 -147.5 377.5t-378.5 149.5q-229 0 -376 -150t-147 -377z M1280 553h932q8 62 8 100q0 82 -25 153.5t-75 129t-134 90.5t-192 33q-153 0 -270.5 -70t-179 -184t-64.5 -252z" />
<glyph unicode="&#x178;" horiz-adv-x="1413" d="M80 1386v7h45l582 -742l581 742h45v-7l-606 -772v-614h-41v612zM410 1700q0 53 45 53q41 0 41 -53t-41 -53q-45 0 -45 53zM913 1700q0 53 45 53q41 0 41 -53t-41 -53q-45 0 -45 53z" />
<glyph unicode="&#x2c6;" horiz-adv-x="1228" d="M371 1257l231 261h51l232 -261h-56l-202 226l-201 -226h-55z" />
<glyph unicode="&#x2dc;" horiz-adv-x="1228" d="M313 1346q28 50 72.5 86t101.5 36q32 0 73.5 -23.5t74.5 -52t70.5 -52t62.5 -23.5q90 0 145 108l29 -26q-27 -50 -72 -86.5t-100 -36.5q-33 0 -74.5 23.5t-74 52t-70.5 52t-64 23.5q-86 0 -145 -108z" />
<glyph unicode="&#x2000;" horiz-adv-x="919" />
<glyph unicode="&#x2001;" horiz-adv-x="1839" />
<glyph unicode="&#x2002;" horiz-adv-x="919" />
<glyph unicode="&#x2003;" horiz-adv-x="1839" />
<glyph unicode="&#x2004;" horiz-adv-x="613" />
<glyph unicode="&#x2005;" horiz-adv-x="459" />
<glyph unicode="&#x2006;" horiz-adv-x="306" />
<glyph unicode="&#x2007;" horiz-adv-x="306" />
<glyph unicode="&#x2008;" horiz-adv-x="229" />
<glyph unicode="&#x2009;" horiz-adv-x="367" />
<glyph unicode="&#x200a;" horiz-adv-x="102" />
<glyph unicode="&#x2010;" horiz-adv-x="1110" d="M195 598v43h720v-43h-720z" />
<glyph unicode="&#x2011;" horiz-adv-x="1110" d="M195 598v43h720v-43h-720z" />
<glyph unicode="&#x2012;" horiz-adv-x="1110" d="M195 598v43h720v-43h-720z" />
<glyph unicode="&#x2013;" horiz-adv-x="1294" d="M195 598v43h905v-43h-905z" />
<glyph unicode="&#x2014;" horiz-adv-x="1746" d="M195 598v43h1357v-43h-1357z" />
<glyph unicode="&#x2018;" horiz-adv-x="497" d="M170 1026q0 68 44.5 202.5t72.5 184.5l32 -14l-98 -303q45 0 69.5 -20t24.5 -50q0 -80 -71 -80q-35 0 -54.5 23.5t-19.5 56.5z" />
<glyph unicode="&#x2019;" horiz-adv-x="489" d="M180 956l103 304q-45 0 -70 20t-25 49q0 80 72 80q35 0 54.5 -23.5t19.5 -56.5q0 -66 -46 -201.5t-75 -185.5z" />
<glyph unicode="&#x201a;" horiz-adv-x="526" d="M182 -330l103 303q-45 0 -70 20t-25 50q0 80 72 80q35 0 54.5 -23.5t19.5 -56.5q0 -66 -46 -201.5t-75 -185.5z" />
<glyph unicode="&#x201c;" horiz-adv-x="823" d="M170 1026q0 68 44.5 202.5t72.5 184.5l32 -14l-98 -303q45 0 69.5 -20t24.5 -50q0 -80 -71 -80q-35 0 -54.5 23.5t-19.5 56.5zM496 1026q0 68 44 203t72 184l33 -14l-98 -303q45 0 69.5 -20t24.5 -50q0 -80 -72 -80q-35 0 -54 23.5t-19 56.5z" />
<glyph unicode="&#x201d;" horiz-adv-x="815" d="M182 956l99 304q-45 0 -70 20t-25 49q0 80 72 80q35 0 54.5 -23.5t19.5 -56.5q0 -66 -44.5 -202t-72.5 -185zM508 956l98 304q-45 0 -69.5 20t-24.5 49q0 80 72 80q35 0 54 -23.5t19 -56.5q0 -66 -44.5 -202.5t-71.5 -184.5z" />
<glyph unicode="&#x201e;" horiz-adv-x="851" d="M186 -330l99 303q-45 0 -70 20t-25 50q0 80 72 80q35 0 54.5 -23.5t19.5 -56.5q0 -66 -44.5 -202t-72.5 -185zM512 -330l98 303q-45 0 -69.5 20t-24.5 50q0 80 72 80q35 0 54.5 -23.5t19.5 -56.5q0 -66 -44.5 -202t-72.5 -185z" />
<glyph unicode="&#x2022;" horiz-adv-x="714" d="M238 618q0 64 30 98t86 34q59 0 91 -34t32 -98q0 -133 -123 -133q-116 0 -116 133z" />
<glyph unicode="&#x2026;" horiz-adv-x="1349" d="M195 49q0 80 69 80q35 0 54.5 -21t19.5 -59q0 -80 -74 -80q-69 0 -69 80zM604 49q0 38 18 59t52 21q35 0 54.5 -21t19.5 -59q0 -80 -74 -80q-70 0 -70 80zM1014 49q0 80 69 80q35 0 54.5 -21t19.5 -59q0 -80 -74 -80q-69 0 -69 80z" />
<glyph unicode="&#x202f;" horiz-adv-x="367" />
<glyph unicode="&#x2039;" horiz-adv-x="655" d="M150 612v17l321 397h6l15 -33l-299 -372l301 -373l-17 -33h-6z" />
<glyph unicode="&#x203a;" horiz-adv-x="655" d="M162 993l16 33h6l322 -397v-17l-322 -397h-6l-14 33l299 373z" />
<glyph unicode="&#x205f;" horiz-adv-x="459" />
<glyph unicode="&#x20ac;" horiz-adv-x="1308" d="M131 557v41h109q-2 31 -2 96q0 59 2 88h-109v41h111q27 286 166 438t354 152q212 0 391 -153l-18 -39q-171 151 -373 151q-200 0 -326.5 -140t-150.5 -409h663l-20 -41h-647q-2 -29 -2 -88q0 -65 2 -96h563l-21 -41h-538q27 -260 153.5 -397t323.5 -137q214 0 381 133 l20 -35q-170 -141 -401 -141q-214 0 -351.5 148.5t-166.5 428.5h-113z" />
<glyph unicode="&#x2122;" horiz-adv-x="1734" d="M150 1317v41h534v-41h-240v-586h-41v586h-253zM858 731v627h41l291 -359l291 359h41v-627h-41v565l-285 -352h-12l-285 352v-565h-41z" />
<glyph unicode="&#x25fc;" horiz-adv-x="1075" d="M0 0v1075h1075v-1075h-1075z" />
<glyph unicode="&#xfb01;" horiz-adv-x="1445" d="M109 956v41h243v127q0 160 76.5 255.5t235.5 95.5q95 0 162 -40.5t106 -95.5l-29 -26q-93 121 -239 121q-73 0 -126.5 -23.5t-84.5 -66t-45.5 -97t-14.5 -123.5v-127h457v-41h-457v-956h-41v956h-243zM1163 1378q0 54 45 54q41 0 41 -54q0 -53 -41 -53q-45 0 -45 53z M1186 0v1071h41v-1071h-41z" />
<glyph unicode="&#xfb02;" horiz-adv-x="1546" d="M109 956v41h243v127q0 160 76.5 255.5t235.5 95.5q95 0 162 -40.5t106 -95.5l-29 -26q-93 121 -239 121q-73 0 -126.5 -23.5t-84.5 -66t-45.5 -97t-14.5 -123.5v-127h457v-41h-457v-956h-41v956h-243zM1163 190v1264h41v-1261q0 -90 42 -131.5t112 -41.5t145 52l21 -35 q-71 -57 -166 -57q-89 0 -142 52t-53 158z" />
</font>
</defs>
</svg>
